<?xml version="1.0" encoding="UTF-8"?>
<svg width="170px" height="32px" viewBox="0 0 170 32" version="1.1" xmlns="http://www.w3.org/2000/svg" xmlns:xlink="http://www.w3.org/1999/xlink">
    <!-- Generator: Sketch 46.2 (44496) - http://www.bohemiancoding.com/sketch -->
    <title>Full-Color Black Logo</title>
    <desc>Created with Sketch.</desc>
    <defs>
        <linearGradient x1="0%" y1="100%" x2="100%" y2="0%" id="linearGradient-1">
            <stop stop-color="#FF0055" offset="0%"></stop>
            <stop stop-color="#F94CFF" offset="100%"></stop>
        </linearGradient>
    </defs>
    <g id="Symbols" stroke="none" stroke-width="1" fill="none" fill-rule="evenodd">
        <g id="Full-Color-Black-Logo">
            <g id="logo">
                <path d="M160,26 C154.477153,26 150,21.5228475 150,16 C150,10.4771525 154.477153,6 160,6 C165.522847,6 170,10.4771525 170,16 C170,21.5228475 165.522847,26 160,26 Z M160,23 C163.865993,23 167,19.8659932 167,16 C167,12.1340068 163.865993,9 160,9 C156.134007,9 153,12.1340068 153,16 C153,19.8659932 156.134007,23 160,23 Z" id="O" fill="#000000"></path>
                <rect id="Rectangle-5" fill="#000000" x="139" y="6" width="3" height="20" rx="0.5"></rect>
                <path d="M121,26 C118.833333,26 116.666667,26 114.5,26 C114.223858,26 114,25.7761424 114,25.5 L114,25.5 L114,6.5 C114,6.22385763 114.223858,6 114.5,6 L114.5,6 C116.666667,6 118.833333,6 121,6 C126.522847,6 131,10.4771525 131,16 C131,21.5228475 126.522847,26 121,26 Z M121,23 C124.865993,23 128,19.8659932 128,16 C128,12.1340068 124.865993,9 121,9 C118.422671,9 117.089338,9 117,9 L117,23 C118.557986,23 119.891319,23 121,23 Z" id="O" fill="#000000"></path>
                <path d="M89.5,6 L91.5,6 L91.5,6 C91.7761424,6 92,6.22385763 92,6.5 C92,10.3333333 92,14.1666667 92,18 C92,20.7600098 94.2400055,23 97,23 C99.7599945,23 102,20.7600098 102,18 C102,14.1666667 102,10.3333333 102,6.5 L102,6.5 C102,6.22385763 102.223858,6 102.5,6 L104.5,6 L104.5,6 C104.776142,6 105,6.22385763 105,6.5 C105,10.3333333 105,14.1666667 105,18 C105,22.4200134 101.419998,26.0169977 97,26 C92.5799045,25.9830019 89,22.4200134 89,18 C89,14.1666667 89,10.3333333 89,6.5 L89,6.5 C89,6.22385763 89.2238576,6 89.5,6 Z" id="Rectangle-5" fill="#000000"></path>
                <path d="M67.5,6 L81.5,6 L81.5,6 C81.7761424,6 82,6.22385763 82,6.5 L82,8.5 L82,8.5 C82,8.77614237 81.7761424,9 81.5,9 L76,9 L76,25.5 L76,25.5 C76,25.7761424 75.7761424,26 75.5,26 L73.5,26 L73.5,26 C73.2238576,26 73,25.7761424 73,25.5 L73,9 L67.5,9 L67.5,9 C67.2238576,9 67,8.77614237 67,8.5 L67,6.5 L67,6.5 C67,6.22385763 67.2238576,6 67.5,6 Z" id="Rectangle-5" fill="#000000"></path>
                <path d="M59.8017419,8.05275749 C59.5002111,7.80596755 59.257763,7.62035343 59.0743976,7.49591512 C57.6152089,6.50565759 55.9958037,6 54.2468636,6 C50.6166197,6 47.7968636,8.16904316 47.7968636,11.5 C47.7968636,14.6123971 49.426844,15.8271595 53.5578172,17.3297871 C53.6984051,17.3809021 53.6984051,17.3809021 53.8378151,17.4316424 C55.3341137,17.9767778 56.0654301,18.2985872 56.6927883,18.733108 C57.4299978,19.2437141 57.6968636,19.7896495 57.6968636,20.5 C57.6968636,21.6820689 56.1247407,23 54.2468636,23 C53.0351991,23 51.6445477,22.5104989 50.0828729,21.4945638 C49.9389827,21.4009572 49.7433108,21.265679 49.495857,21.0887292 L49.4958454,21.0887455 C49.2754305,20.9311307 48.9695758,20.9777849 48.8061755,21.1939458 L47.6011774,22.7880288 L47.6011668,22.7880208 C47.4346436,23.008313 47.4782321,23.3218889 47.6985243,23.4884121 C47.7023232,23.4912838 47.706163,23.494101 47.7100423,23.496863 C48.1210986,23.7895182 48.4419145,24.0083474 48.6724901,24.1533508 C50.6119222,25.3730121 52.4675805,26 54.2468636,26 C57.6760117,26 60.6968636,23.4675805 60.6968636,20.5 C60.6968636,18.8348952 59.9742324,17.3565866 58.4009389,16.266892 C57.4930631,15.638079 56.5997269,15.2449743 54.8647526,14.6128839 C54.7233194,14.5614072 54.7233194,14.5614072 54.5833209,14.5105067 C51.5930967,13.4228227 50.7968636,12.8294204 50.7968636,11.5 C50.7968636,10.0232645 52.1271075,9 54.2468636,9 C55.3153089,9 56.2976805,9.28292314 57.2188159,9.86581612 C57.371607,9.96250211 57.5737657,10.1114064 57.825292,10.3125291 L57.8253234,10.3124898 C58.0313815,10.4772557 58.3300061,10.4535432 58.5074792,10.2583228 L59.8550516,8.77599321 L59.8550256,8.77596958 C60.040766,8.57165513 60.0257088,8.25545318 59.8213943,8.06971276 C59.8149914,8.06389189 59.8084383,8.05823822 59.8017419,8.05275749 Z" id="Line" fill="#000000" fill-rule="nonzero"></path>
                <g id="Group" fill="url(#linearGradient-1)">
                    <path d="M3.83776341,25.6166644 L25.6166522,3.83777557 C25.8509668,3.60346099 26.2308658,3.60346099 26.4651804,3.83777557 L28.1622366,5.53483175 C28.3965512,5.76914633 28.3965512,6.14904533 28.1622366,6.38335992 L6.38334776,28.1622487 C6.14903317,28.3965633 5.76913417,28.3965633 5.53481959,28.1622487 L3.83776341,26.4651926 C3.60344883,26.230878 3.60344883,25.850979 3.83776341,25.6166644 Z" id="c3"></path>
                </g>
            </g>
        </g>
    </g>
</svg>